<svg width="116" height="50" viewBox="0 0 116 50" fill="none" xmlns="http://www.w3.org/2000/svg">
<path d="M6.41538 11.864V22.2C6.41538 23.0533 6.59671 23.6613 6.95938 24.024C7.32204 24.3653 7.95138 24.536 8.84738 24.536H10.9914V27H8.36738C6.74604 27 5.53004 26.6267 4.71938 25.88C3.90871 25.1333 3.50338 23.9067 3.50338 22.2V11.864H1.23138V9.464H3.50338V5.048H6.41538V9.464H10.9914V11.864H6.41538ZM23.8636 9.144C25.1863 9.144 26.381 9.432 27.4476 10.008C28.5143 10.5627 29.3463 11.4053 29.9436 12.536C30.5623 13.6667 30.8716 15.0427 30.8716 16.664V27H27.9916V17.08C27.9916 15.3307 27.5543 13.9973 26.6796 13.08C25.805 12.1413 24.6103 11.672 23.0956 11.672C21.5596 11.672 20.333 12.152 19.4156 13.112C18.5196 14.072 18.0716 15.4693 18.0716 17.304V27H15.1596V3.32H18.0716V11.96C18.6476 11.064 19.437 10.3707 20.4396 9.88C21.4636 9.38933 22.605 9.144 23.8636 9.144ZM50.6684 17.56C50.6684 18.1147 50.6364 18.7013 50.5724 19.32H36.5564C36.663 21.048 37.2497 22.4027 38.3164 23.384C39.4044 24.344 40.7164 24.824 42.2524 24.824C43.511 24.824 44.5564 24.536 45.3884 23.96C46.2417 23.3627 46.839 22.5733 47.1804 21.592H50.3164C49.847 23.2773 48.9084 24.6533 47.5004 25.72C46.0924 26.7653 44.343 27.288 42.2524 27.288C40.5884 27.288 39.095 26.9147 37.7724 26.168C36.471 25.4213 35.447 24.3653 34.7004 23C33.9537 21.6133 33.5804 20.0133 33.5804 18.2C33.5804 16.3867 33.943 14.7973 34.6684 13.432C35.3937 12.0667 36.407 11.0213 37.7084 10.296C39.031 9.54933 40.5457 9.176 42.2524 9.176C43.9164 9.176 45.3884 9.53867 46.6684 10.264C47.9484 10.9893 48.9297 11.992 49.6124 13.272C50.3164 14.5307 50.6684 15.96 50.6684 17.56ZM47.6604 16.952C47.6604 15.8427 47.415 14.8933 46.9244 14.104C46.4337 13.2933 45.7617 12.6853 44.9084 12.28C44.0764 11.8533 43.1484 11.64 42.1244 11.64C40.6524 11.64 39.3937 12.1093 38.3484 13.048C37.3244 13.9867 36.7377 15.288 36.5884 16.952H47.6604ZM67.1714 27.288C65.5287 27.288 64.0354 26.9147 62.6914 26.168C61.3687 25.4213 60.3234 24.3653 59.5554 23C58.8087 21.6133 58.4354 20.0133 58.4354 18.2C58.4354 16.408 58.8194 14.8293 59.5874 13.464C60.3767 12.0773 61.4434 11.0213 62.7874 10.296C64.1314 9.54933 65.6354 9.176 67.2994 9.176C68.9634 9.176 70.4674 9.54933 71.8114 10.296C73.1554 11.0213 74.2114 12.0667 74.9794 13.432C75.7687 14.7973 76.1634 16.3867 76.1634 18.2C76.1634 20.0133 75.758 21.6133 74.9474 23C74.158 24.3653 73.0807 25.4213 71.7154 26.168C70.35 26.9147 68.8354 27.288 67.1714 27.288ZM67.1714 24.728C68.2167 24.728 69.198 24.4827 70.1154 23.992C71.0327 23.5013 71.7687 22.7653 72.3234 21.784C72.8994 20.8027 73.1874 19.608 73.1874 18.2C73.1874 16.792 72.91 15.5973 72.3554 14.616C71.8007 13.6347 71.0754 12.9093 70.1794 12.44C69.2834 11.9493 68.3127 11.704 67.2674 11.704C66.2007 11.704 65.2194 11.9493 64.3234 12.44C63.4487 12.9093 62.7447 13.6347 62.2114 14.616C61.678 15.5973 61.4114 16.792 61.4114 18.2C61.4114 19.6293 61.6674 20.8347 62.1794 21.816C62.7127 22.7973 63.4167 23.5333 64.2914 24.024C65.166 24.4933 66.126 24.728 67.1714 24.728ZM87.2561 9.144C89.3895 9.144 91.1175 9.79467 92.4401 11.096C93.7628 12.376 94.4241 14.232 94.4241 16.664V27H91.5441V17.08C91.5441 15.3307 91.1068 13.9973 90.2321 13.08C89.3575 12.1413 88.1628 11.672 86.6481 11.672C85.1121 11.672 83.8855 12.152 82.9681 13.112C82.0721 14.072 81.6241 15.4693 81.6241 17.304V27H78.7121V9.464H81.6241V11.96C82.2001 11.064 82.9788 10.3707 83.9601 9.88C84.9628 9.38933 86.0615 9.144 87.2561 9.144ZM114.221 17.56C114.221 18.1147 114.189 18.7013 114.125 19.32H100.109C100.216 21.048 100.802 22.4027 101.869 23.384C102.957 24.344 104.269 24.824 105.805 24.824C107.064 24.824 108.109 24.536 108.941 23.96C109.794 23.3627 110.392 22.5733 110.733 21.592H113.869C113.4 23.2773 112.461 24.6533 111.053 25.72C109.645 26.7653 107.896 27.288 105.805 27.288C104.141 27.288 102.648 26.9147 101.325 26.168C100.024 25.4213 98.9995 24.3653 98.2529 23C97.5062 21.6133 97.1329 20.0133 97.1329 18.2C97.1329 16.3867 97.4955 14.7973 98.2209 13.432C98.9462 12.0667 99.9595 11.0213 101.261 10.296C102.584 9.54933 104.098 9.176 105.805 9.176C107.469 9.176 108.941 9.53867 110.221 10.264C111.501 10.9893 112.482 11.992 113.165 13.272C113.869 14.5307 114.221 15.96 114.221 17.56ZM111.213 16.952C111.213 15.8427 110.968 14.8933 110.477 14.104C109.986 13.2933 109.314 12.6853 108.461 12.28C107.629 11.8533 106.701 11.64 105.677 11.64C104.205 11.64 102.946 12.1093 101.901 13.048C100.877 13.9867 100.29 15.288 100.141 16.952H111.213Z" fill="#555555"/>
<path d="M14.474 36.674C15.272 36.674 15.902 37.318 15.902 38.102C15.902 38.9 15.272 39.53 14.474 39.53C13.69 39.53 13.046 38.9 13.046 38.102C13.046 37.318 13.69 36.674 14.474 36.674ZM14.474 37.36C14.054 37.36 13.732 37.682 13.732 38.102C13.732 38.522 14.054 38.858 14.474 38.858C14.894 38.858 15.23 38.522 15.23 38.102C15.23 37.682 14.894 37.36 14.474 37.36ZM11.534 43.408L12.5 42.484C13.802 43.422 14.74 44.402 15.58 45.732L14.32 46.768C13.592 45.466 12.78 44.486 11.534 43.408ZM6.312 42.484L7.656 42.974C7.754 43.016 7.796 43.058 7.796 43.128C7.796 43.212 7.754 43.268 7.544 43.366C6.648 45.382 6.228 45.998 4.912 47.286C4.632 46.712 4.338 46.376 3.876 46.04C5.262 44.724 5.738 44.024 6.312 42.484ZM10.456 41.42V45.06C10.456 46.306 10.47 47.314 10.498 47.93H8.944C8.972 47.3 8.986 46.348 8.986 45.06V41.42H5.948C5.486 41.42 4.688 41.434 4.268 41.462V40.02C4.688 40.048 5.402 40.062 5.948 40.062H8.986C8.972 38.62 8.958 37.766 8.93 37.486L10.526 37.584C10.666 37.598 10.75 37.654 10.75 37.738C10.75 37.808 10.68 37.878 10.484 38.004C10.484 38.214 10.47 38.354 10.456 40.062H13.466C13.998 40.062 14.726 40.048 15.146 40.02V41.462C14.712 41.434 13.928 41.42 13.466 41.42H10.456ZM31.232 41.91V43.408C30.574 43.394 29.468 43.366 28.726 43.366H22.86C22.174 43.366 20.956 43.394 20.354 43.408V41.91C20.928 41.924 22.146 41.952 22.86 41.952H28.726C29.496 41.952 30.602 41.938 31.232 41.91ZM41.634 39.894V41C43.51 41.686 44.63 42.246 46.016 43.142L45.134 44.472C44.056 43.66 42.978 43.058 41.634 42.512V45.494C41.634 46.81 41.648 47.636 41.662 48.35H39.996C40.08 47.664 40.122 46.754 40.122 45.494V39.894C40.122 38.298 40.108 37.416 40.066 36.982L41.704 37.08C41.844 37.08 41.928 37.136 41.928 37.22C41.928 37.304 41.844 37.388 41.662 37.486C41.634 38.41 41.634 38.578 41.634 39.894ZM61.374 38.466L61.612 38.2L62.816 39.18C62.914 39.264 62.956 39.32 62.956 39.404C62.956 39.502 62.858 39.586 62.606 39.656C62.046 41.616 61.318 43.1 60.296 44.318C58.952 45.928 57.44 46.978 54.696 48.238C54.402 47.58 54.15 47.244 53.688 46.908C56.474 45.746 57.902 44.794 59.162 43.254C59.96 42.302 60.702 40.888 60.954 39.866L57.44 40.118C55.55 40.23 54.164 40.314 53.478 40.398L53.324 38.83L53.73 38.844C53.982 38.844 54.29 38.83 54.878 38.802C55.228 38.788 55.634 38.76 56.068 38.746C56.712 38.718 57.16 38.704 57.412 38.69L61.374 38.466ZM71.566 41.854L74.268 41.798C74.24 39.852 74.24 39.852 74.184 39.46L75.57 39.558C75.71 39.558 75.808 39.642 75.808 39.74C75.808 39.838 75.752 39.908 75.598 39.992C75.584 40.244 75.584 40.846 75.57 41.798L76.662 41.77C77.418 41.756 77.656 41.756 78.51 41.7L78.538 43.016C78.398 43.002 78.398 43.002 78.174 43.002H77.712C77.474 43.002 77.236 43.002 76.676 43.016L75.57 43.03V45.172C75.57 45.522 75.584 46.236 75.598 46.796C75.612 47.216 75.612 47.342 75.612 47.454C75.612 48.364 75.276 48.602 73.974 48.602C73.722 48.602 73.638 48.602 72.994 48.588C72.98 48.014 72.98 48.014 72.756 47.132C73.372 47.202 73.638 47.23 73.946 47.23C74.24 47.23 74.268 47.188 74.268 46.852V44.038C73.302 45.368 71.958 46.474 69.76 47.748C69.508 47.076 69.494 47.048 69.074 46.614C71.23 45.452 72.42 44.514 73.582 43.058L71.58 43.086C71.09 43.086 70.432 43.114 69.718 43.156L69.704 41.854C70.558 41.854 71.02 41.868 71.566 41.854ZM93.098 39.362V41.952C93.098 44.92 92.664 46.208 91.236 47.398C90.438 48.056 89.752 48.434 88.24 49.05C87.988 48.322 87.778 48 87.344 47.678C88.548 47.272 89.458 46.81 90.102 46.278C91.152 45.41 91.516 44.332 91.516 42.092V39.362C91.516 38.298 91.502 37.654 91.474 37.262L93.126 37.36C93.28 37.374 93.364 37.416 93.364 37.514C93.364 37.584 93.308 37.654 93.126 37.78C93.098 38.186 93.098 38.186 93.098 39.362ZM87.302 37.57L88.954 37.668C89.108 37.668 89.192 37.724 89.192 37.808C89.192 37.892 89.136 37.948 88.926 38.088C88.926 38.494 88.926 38.494 88.912 39.67V42.344C88.912 43.324 88.926 43.94 88.94 44.388H87.302C87.33 43.912 87.344 43.268 87.344 42.344V39.67C87.344 38.564 87.33 37.962 87.302 37.57ZM103.304 40.146L106.748 40.076C106.72 37.892 106.706 37.598 106.65 37.234L108.26 37.346C108.386 37.346 108.456 37.402 108.456 37.486C108.456 37.57 108.386 37.64 108.204 37.752C108.19 38.242 108.19 38.368 108.176 39.138V40.076L109.604 40.048C110.402 40.034 110.906 40.006 111.816 39.964L111.83 41.434H109.618L108.176 41.462V44.206C108.176 44.654 108.19 45.634 108.204 46.222C108.218 46.754 108.218 46.88 108.218 47.006C108.218 47.594 108.148 47.804 107.924 48.014C107.616 48.266 107.196 48.364 106.286 48.364C105.978 48.364 105.698 48.35 105.166 48.336C105.138 47.692 105.096 47.384 104.914 46.74C105.6 46.824 105.88 46.838 106.258 46.838C106.678 46.838 106.748 46.768 106.748 46.292V42.624C105.628 44.234 103.738 45.802 101.12 47.286C100.882 46.614 100.728 46.334 100.378 45.998C102.03 45.116 103.108 44.402 104.186 43.436C104.872 42.82 105.628 42.008 105.978 41.49L103.318 41.532C102.688 41.532 102.03 41.56 101.106 41.602L101.092 40.146H103.304Z" fill="#555555"/>
</svg>
